<?xml version="1.0" standalone="no"?>
<!DOCTYPE svg PUBLIC "-//W3C//DTD SVG 20010904//EN"
 "http://www.w3.org/TR/2001/REC-SVG-20010904/DTD/svg10.dtd">
<svg version="1.0" xmlns="http://www.w3.org/2000/svg"
 width="640.000000pt" height="451.000000pt" viewBox="0 0 640.000000 451.000000"
 preserveAspectRatio="xMidYMid meet">

<g transform="translate(0.000000,451.000000) scale(0.100000,-0.100000)"
fill="#000000" stroke="none">
<path d="M2780 3755 l0 -35 195 0 195 0 0 35 0 35 -195 0 -195 0 0 -35z"/>
<path d="M2330 3660 c-20 -20 -26 -65 -12 -86 16 -25 56 -34 146 -34 l96 0 0
70 0 70 -105 0 c-92 0 -108 -3 -125 -20z"/>
<path d="M2600 3555 l0 -125 375 0 375 0 0 125 0 125 -375 0 -375 0 0 -125z
m650 60 c20 -25 8 -50 -25 -50 -21 0 -31 5 -33 18 -4 21 14 47 33 47 7 0 18
-7 25 -15z m-122 -22 c-3 -16 -21 -18 -173 -21 -184 -3 -215 0 -215 23 0 13
30 15 196 15 181 0 195 -1 192 -17z"/>
<path d="M3390 3610 l0 -70 100 0 c94 0 103 2 125 25 14 13 25 33 25 45 0 12
-11 32 -25 45 -22 23 -31 25 -125 25 l-100 0 0 -70z"/>
<path d="M3670 3435 c-19 -23 -8 -50 22 -53 19 -2 28 2 33 18 12 39 -29 66
-55 35z"/>
<path d="M2650 3387 c0 -2 42 -34 94 -70 l94 -67 136 0 136 0 93 66 c50 37 94
68 96 70 2 2 -143 4 -322 4 -180 0 -327 -2 -327 -3z"/>
<path d="M2297 3294 c-13 -14 -7 -43 12 -53 24 -13 55 8 50 35 -4 19 -48 32
-62 18z"/>
<path d="M3341 3216 c-9 -11 -10 -20 -1 -35 19 -36 64 -20 58 20 -4 28 -39 37
-57 15z"/>
<path d="M2850 3171 c0 -36 5 -43 45 -72 59 -43 98 -43 159 1 41 30 46 38 46
72 l0 38 -125 0 -125 0 0 -39z"/>
<path d="M3550 3160 c-11 -11 -20 -27 -20 -35 0 -8 9 -24 20 -35 11 -11 27
-20 35 -20 8 0 24 9 35 20 11 11 20 27 20 35 0 8 -9 24 -20 35 -11 11 -27 20
-35 20 -8 0 -24 -9 -35 -20z"/>
<path d="M2621 3036 c-9 -11 -10 -20 -1 -35 19 -36 64 -20 58 20 -4 28 -39 37
-57 15z"/>
<path d="M2960 2980 l0 -50 208 0 c172 0 211 -3 230 -16 28 -20 30 -69 3 -84
-12 -6 -104 -10 -230 -10 -181 0 -211 -2 -211 -15 0 -13 31 -15 219 -15 121 0
227 3 236 6 25 10 48 62 40 93 -4 14 -16 36 -27 49 -21 21 -27 22 -230 22
l-208 0 0 35 c0 24 -5 35 -15 35 -11 0 -15 -12 -15 -50z"/>
<path d="M2285 2878 c-51 -27 -61 -89 -21 -134 63 -75 176 6 140 101 -7 19
-55 45 -81 45 -10 0 -27 -6 -38 -12z"/>
<path d="M2860 2762 c-67 -25 -143 -104 -170 -177 -96 -262 175 -499 427 -373
96 48 156 148 157 263 1 82 -19 139 -70 198 -57 67 -78 77 -171 77 -59 0 -86
4 -97 15 -18 18 -19 18 -76 -3z m47 -165 c21 -21 21 -73 0 -94 -16 -16 -15
-19 4 -39 30 -32 19 -88 -21 -109 -38 -19 -110 -19 -138 0 -21 15 -21 17 -6
40 13 20 20 23 34 15 10 -6 32 -10 49 -10 26 0 31 4 31 25 0 20 -6 27 -30 32
-23 4 -30 11 -30 29 0 19 5 24 24 24 24 0 41 23 30 41 -7 12 -45 11 -64 -1
-10 -6 -20 -4 -32 7 -24 22 -23 30 10 48 34 19 117 14 139 -8z m242 -1 c81
-43 85 -187 6 -236 -25 -15 -50 -20 -109 -20 l-76 0 0 141 0 142 74 -6 c40 -3
88 -12 105 -21z"/>
<path d="M3040 2475 c0 -92 1 -94 58 -74 61 21 65 127 5 150 -59 22 -63 17
-63 -76z"/>
<path d="M3497 2579 c-23 -13 -22 -46 2 -59 22 -11 51 9 51 35 0 21 -32 35
-53 24z"/>
<path d="M2407 2434 c-15 -16 -7 -53 14 -59 30 -10 58 19 43 43 -12 18 -45 28
-57 16z"/>
<path d="M2285 1848 c3 -13 9 -32 11 -43 3 -12 -40 -113 -115 -268 -67 -137
-121 -251 -121 -253 0 -2 18 -4 41 -4 32 0 45 6 65 30 33 39 75 50 221 57
l122 6 20 -47 c20 -45 21 -46 66 -46 26 0 45 4 43 9 -1 5 -64 138 -138 295
l-135 286 -44 0 c-40 0 -43 -2 -36 -22z m124 -272 c34 -63 61 -117 61 -120 0
-3 -33 -6 -73 -6 -40 0 -95 -6 -123 -13 l-51 -13 61 133 c34 73 62 133 63 133
1 0 29 -51 62 -114z"/>
<path d="M2854 1845 c-98 -49 -136 -165 -77 -236 37 -44 72 -56 188 -64 55 -4
109 -12 120 -18 78 -40 47 -139 -51 -166 -81 -22 -152 -7 -215 47 l-40 35 -30
-29 -31 -29 42 -37 c80 -71 198 -95 308 -63 91 27 144 90 144 171 0 117 -44
150 -220 169 -121 14 -152 28 -152 70 0 34 37 73 80 86 52 16 118 4 173 -31
l46 -29 26 31 26 30 -41 30 c-84 62 -209 76 -296 33z"/>
<path d="M960 1570 l0 -292 183 4 c166 3 186 5 224 26 24 12 50 33 58 46 37
56 26 157 -23 206 l-27 26 23 34 c47 70 20 169 -58 214 -31 18 -56 21 -207 25
l-173 3 0 -292z m357 174 c20 -20 24 -31 19 -57 -11 -54 -26 -61 -149 -68 -62
-4 -120 -10 -129 -14 -16 -6 -18 1 -18 79 l0 86 125 0 c122 0 127 -1 152 -26z
m24 -243 c37 -37 37 -65 1 -101 -34 -34 -80 -42 -207 -38 l-90 3 -3 72 c-3 70
-2 71 25 81 15 6 77 11 136 11 107 1 109 1 138 -28z"/>
<path d="M1610 1570 l0 -290 200 0 200 0 0 40 0 40 -160 0 -160 0 0 250 0 250
-40 0 -40 0 0 -290z"/>
<path d="M3300 1815 l0 -45 100 0 100 0 0 -245 0 -245 40 0 40 0 0 245 0 245
100 0 100 0 0 45 0 45 -240 0 -240 0 0 -45z"/>
<path d="M3910 1570 l0 -290 220 0 220 0 0 40 0 40 -177 2 -178 3 -3 73 c-3
70 -2 72 24 82 15 6 69 14 121 17 l93 6 0 40 0 39 -102 -4 c-57 -3 -111 -8
-120 -13 -16 -6 -18 1 -18 79 l0 86 160 0 160 0 0 45 0 45 -200 0 -200 0 0
-290z"/>
<path d="M4500 1571 l0 -291 40 0 40 0 0 104 c0 81 3 106 15 116 9 7 49 15 90
18 l74 5 48 -99 c44 -89 53 -101 93 -121 24 -13 59 -23 77 -23 32 0 33 2 33
39 0 36 -2 39 -35 45 -37 7 -67 39 -104 113 l-21 43 32 14 c18 7 47 28 63 45
28 30 30 38 30 106 0 85 -16 116 -81 149 -34 18 -61 21 -216 24 l-178 4 0
-291z m375 174 c31 -30 32 -73 5 -108 -23 -29 -48 -34 -202 -40 l-98 -4 0 88
0 89 135 0 c131 0 137 -1 160 -25z"/>
<path d="M2758 1116 c-16 -8 -23 -20 -23 -41 0 -28 4 -31 48 -39 48 -10 58
-24 32 -46 -11 -9 -22 -9 -46 -1 -47 16 -57 13 -30 -9 13 -11 36 -20 52 -20
28 0 69 30 69 50 0 20 -41 50 -69 50 -17 0 -32 4 -35 9 -11 17 23 34 55 27 21
-4 29 -2 27 6 -7 19 -54 27 -80 14z"/>
<path d="M1962 1043 c2 -50 7 -78 16 -81 9 -3 12 17 12 77 0 66 -3 81 -15 81
-13 0 -15 -13 -13 -77z"/>
<path d="M2028 1108 c7 -7 12 -40 12 -80 0 -39 4 -68 10 -68 6 0 10 25 10 56
l0 56 27 -32 27 -33 22 27 c13 14 26 26 29 26 3 0 5 -22 5 -50 0 -27 5 -50 10
-50 6 0 10 28 10 64 0 35 3 71 6 80 11 28 -15 17 -50 -21 l-33 -37 -33 37
c-18 20 -39 37 -48 37 -12 0 -13 -3 -4 -12z"/>
<path d="M2240 1039 c0 -60 3 -80 13 -77 6 3 13 19 15 36 3 29 6 32 37 32 32
0 65 21 65 41 0 6 -5 19 -10 30 -9 15 -22 19 -65 19 l-55 0 0 -81z m95 36 c0
-15 -8 -21 -32 -23 -30 -3 -33 -1 -33 23 0 24 3 26 33 23 24 -2 32 -8 32 -23z"/>
<path d="M2400 1039 c0 -60 3 -80 13 -77 6 3 13 19 15 36 4 42 36 43 56 3 13
-24 34 -41 52 -41 12 0 1 24 -18 40 -22 17 -22 19 -5 37 20 23 22 54 5 71 -7
7 -36 12 -65 12 l-53 0 0 -81z m105 36 c0 -16 -8 -21 -37 -23 -35 -3 -38 -1
-38 23 0 24 3 26 38 23 29 -2 37 -7 37 -23z"/>
<path d="M2580 1040 l0 -80 60 0 c47 0 60 3 60 15 0 11 -12 15 -50 15 -43 0
-50 3 -50 20 0 15 7 20 29 20 17 0 33 5 36 10 6 10 -4 13 -42 12 -18 -1 -23 4
-23 23 0 23 4 25 45 25 25 0 45 5 45 10 0 6 -25 10 -55 10 l-55 0 0 -80z"/>
<path d="M2890 1040 c0 -47 4 -80 10 -80 6 0 10 33 10 80 0 47 -4 80 -10 80
-6 0 -10 -33 -10 -80z"/>
<path d="M2972 1097 c-47 -50 -10 -137 58 -137 35 0 90 46 90 75 0 24 -27 72
-45 79 -36 13 -82 6 -103 -17z m102 -13 c25 -24 20 -71 -9 -90 -55 -36 -117
25 -81 80 19 30 65 35 90 10z"/>
<path d="M3148 1108 c7 -7 12 -40 12 -80 0 -39 4 -68 10 -68 6 0 10 24 10 53
l1 52 47 -53 c26 -29 50 -52 55 -52 11 0 9 160 -3 160 -5 0 -10 -26 -10 -57
l0 -58 -53 58 c-28 32 -59 57 -66 57 -12 0 -12 -3 -3 -12z"/>
<path d="M3340 1040 l0 -80 60 0 c47 0 60 3 60 15 0 11 -12 15 -50 15 -43 0
-50 3 -50 20 0 15 7 20 29 20 17 0 33 5 36 10 6 10 -4 13 -42 12 -18 -1 -23 4
-23 23 0 23 4 25 45 25 25 0 45 5 45 10 0 6 -25 10 -55 10 l-55 0 0 -80z"/>
<path d="M3500 1105 c-7 -8 -10 -25 -6 -39 5 -20 14 -26 51 -32 34 -5 45 -11
45 -24 0 -24 -30 -33 -65 -20 -34 13 -47 3 -21 -16 41 -29 116 -3 116 40 0 21
-40 46 -73 46 -22 0 -28 4 -25 18 3 13 13 17 47 15 36 -2 41 0 31 13 -16 18
-84 18 -100 -1z"/>
<path d="M3720 1110 c0 -5 14 -10 32 -10 29 0 30 -1 15 -18 -24 -26 -21 -39 8
-46 28 -7 32 -27 10 -46 -12 -10 -21 -10 -42 -1 -15 7 -30 8 -35 3 -5 -5 4
-14 22 -22 40 -16 79 -4 91 28 7 18 4 28 -16 46 -25 23 -25 23 -5 41 31 28 24
35 -30 35 -27 0 -50 -4 -50 -10z"/>
<path d="M3858 1108 c7 -7 12 -40 12 -80 l0 -68 38 0 c89 0 131 96 64 146 -23
18 -131 19 -114 2z m100 -24 c24 -17 30 -62 10 -82 -7 -7 -25 -12 -40 -12 -27
0 -28 1 -28 55 0 61 14 70 58 39z"/>
</g>
</svg>
